<?xml version="1.0" encoding="UTF-8"?>
<svg id="Layer_1" xmlns="http://www.w3.org/2000/svg" version="1.1" viewBox="0 0 160 160">
  <!-- Generator: Adobe Illustrator 30.4.0, SVG Export Plug-In . SVG Version: 2.1.4 Build 226)  -->
  <path d="M69.29,102.68c-1.85,0-3.2.95-4.05,2.65l-.9,1.8c-.65,1.3-.6,2.45-.6,3.9v5.65c0,1.45.05,2.5.55,3.9l1.6,4.3c.65,1.75,1.6,2.7,3.3,2.7,1.55,0,2.5-.95,3.35-2.55l1.1-2.05c.65-1.25.7-2.45.7-3.9v-10.2c0-1.6-.4-2.7-1.2-4.05-.9-1.5-2.1-2.15-3.85-2.15Z"/>
  <path d="M74.64,53.48h4.35c2.05,0,3.15-1.15,3.15-3.2v-1.4c0-1.6-.4-2.7-1.2-4.05-.9-1.55-2.25-2.15-3.9-2.15-2.1,0-3.65.8-4.3,2.65l-.65,1.8c-.4,1.05-.55,2.4-.6,3.4.1,1.95,1.2,2.95,3.15,2.95Z"/>
  <path d="M0,0v160h160V0H0ZM103.54,48.63c0-.3.1-.6.25-.85l5-7.95c.2-.35.5-.45.85-.45h9.45v-6.8c0-.45.25-.7.7-.7h3.95c.45,0,.7.25.7.7v37.6c0,.45-.25.7-.7.7h-14.1c-.35,0-.65-.15-.8-.5l-5.1-9.9c-.15-.3-.2-.55-.2-.85v-11ZM56.09,32.58c0-.45.25-.7.7-.7h3.95c.45,0,.7.25.7.7v3.1c0,.45-.25.7-.7.7h-3.95c-.45,0-.7-.25-.7-.7v-3.1ZM32.29,32.58c0-.45.25-.7.7-.7h19.15c.45,0,.7.25.7.7v1.9c0,.45-.25.7-.7.7h-11.25c-2.05,0-3.2,1.15-3.2,3.2v7.65c0,2.05,1.15,3.2,3.2,3.2h6.8c.45,0,.7.25.7.7v1.9c0,.45-.25.7-.7.7h-6.8c-2.05,0-3.2,1.15-3.2,3.2v14.45c0,.45-.25.7-.7.7h-4c-.45,0-.7-.25-.7-.7v-37.6ZM53.94,119.83c0,.35-.05.55-.15.85l-3.15,9.65c-.1.35-.4.55-.8.55h-3.35c-.4,0-.7-.15-.8-.6l-1.45-6.45c-.35-1.6-2.2-1.7-2.55,0l-1.4,6.45c-.1.45-.4.6-.8.6h-3.35c-.4,0-.7-.2-.8-.55l-3.15-9.65c-.1-.3-.15-.5-.15-.85v-27.25c0-.45.25-.7.7-.7h3.75c.45,0,.7.25.7.7v28.25c0,.65.35,1,1,1,.6,0,.9-.3,1.05-.95l1.65-7.55c.1-.45.4-.6.8-.6h2.7c.4,0,.7.15.8.6l1.55,7.55c.1.6.45.95,1.05.95.65,0,1-.35,1-1v-28.25c0-.45.25-.7.7-.7h3.75c.45,0,.7.25.7.7v27.25ZM56.09,70.18v-30.1c0-.45.25-.7.7-.7h3.95c.45,0,.7.25.7.7v30.1c0,.45-.25.7-.7.7h-3.95c-.45,0-.7-.25-.7-.7ZM79.99,121.58c0,.3-.1.6-.25.85l-5,8c-.2.35-.5.45-.85.45h-9.7c-.35,0-.65-.15-.8-.5l-5.1-9.9c-.15-.3-.2-.55-.2-.85v-11c0-.3.1-.6.25-.85l5-7.95c.2-.35.5-.45.85-.45h9.5c.35,0,.65.15.85.45l5.15,6.85c.2.25.3.55.3.9v14ZM82.04,70.88h-10.55c-.4,0-.7-.15-.85-.5l-4.6-9.9c-.15-.3-.2-.5-.2-.85v-11c0-.3.1-.55.25-.85l4.5-7.9c.2-.3.5-.5.85-.5h10.8c.35,0,.65.15.85.45l4.2,6.85c.15.25.25.55.25.85v8.55c0,.45-.25.7-.7.7h-12.1c-2.25,0-3.5,1.35-2.8,3.55l1.2,4.55c.55,1.75,1.6,2.7,3.3,2.7h1.2c1.9,0,2.85-.95,3.55-2.7l.2-.5c.25-.65.35-.95.45-1.5.05-.45.3-.7.7-.7h4.3c.45,0,.7.25.7.7v.65c0,.35-.1.65-.3.9l-4.35,6c-.2.3-.5.45-.85.45ZM103.44,112.03c0,.45-.25.7-.7.7h-4.25c-.45,0-.7-.25-.7-.7v-3.1c0-1.5-.3-2.6-1-3.95-.8-1.55-2.05-2.3-3.8-2.3-2.05,0-3.25,1.15-3.25,3.2v24.3c0,.45-.25.7-.7.7h-3.95c-.45,0-.7-.25-.7-.7v-30.1c0-.45.25-.7.7-.7h12.3c.35,0,.65.15.85.45l4.9,6.85c.2.25.3.55.3.9v4.45ZM103.89,70.18c0,.45-.25.7-.7.7h-6.9c-.4,0-.65-.15-.8-.5l-3.5-7.45c-.15-.3-.2-.5-.2-.85v-29.5c0-.45.25-.7.7-.7h3.95c.45,0,.7.25.7.7v28.05c0,1.4,0,2.35.55,3.6l.6,1.4c.65,1.45,1.85,1.95,3.35,1.95h1.55c.45,0,.7.25.7.7v1.9ZM128.59,130.88h-4.85c-.35,0-.65-.1-.85-.45l-8.6-12.8c-.65-.95-2-.55-2,.4v12.15c0,.45-.25.7-.7.7h-3.95c-.45,0-.7-.25-.7-.7v-37.6c0-.45.25-.7.7-.7h3.95c.45,0,.7.25.7.7v18.4c0,.9,1.35,1.5,2,.45l7.2-11.6c.2-.35.5-.45.85-.45h4.75c.55,0,.75.4.45.85l-8,12.4c-.8,1.25-.85,2.3,0,3.55l9.5,13.85c.3.45.1.85-.45.85Z"/>
  <path d="M109.19,56.68c0,1.45.05,2.5.55,3.9l1.6,4.3c.65,1.75,1.6,2.7,3.3,2.7h1.25c2,0,3.2-1.15,3.2-3.2v-18.5c0-2.05-1.15-3.2-3.2-3.2h-1.15c-1.85,0-3.2.95-4.05,2.65l-.9,1.8c-.65,1.3-.6,2.45-.6,3.9v5.65Z"/>
</svg>