<?xml version="1.0" encoding="UTF-8"?>
<svg id="Back_of_Shirt" data-name="Back of Shirt" xmlns="http://www.w3.org/2000/svg" viewBox="0 0 144 108">
  <defs>
    <style>
      .cls-1 {
        fill: #231f20;
      }
    </style>
  </defs>
  <path d="M36.03,9.48c0-.8.13-1.72-.19-2.42-.47-1.03-.91-.18-.89.6.01.43-.09.62-.24,1-.12.29-.18.63-.35.89-.19.3-.44.61-.65.91s-.6.64-.93.27c-.39.2-.82.45-1.21.56s-1.54.27-1.08.94c.29.43,1.09.27,1.16.96.03.26,0,.4-.17.63-.19.27-.7.37-.84.67-.19.39.29.6.22.94s-.63.26-.91.32c-.65.15-.54.2-1.08.63-.24.19-1.18-.04-1.32.24-.23.47-.14.5-.03.89.13.46.35,1.43.75,1.73.13.1.5.13.66.2.19.08.4.25.59.3.38.09,1.84,0,1.1.68-.42.38-1.1.2-1.63.22-.62.02-1.23.32-1.8.51-.61.2-.62.51-.69,1.09-.06.46-.02.35-.42.51s-.72.24-1.09.46-.4.17-.45.62c-.02.22-.07.81.02,1.01.31.73,1.11.17,1.61.02.37-.11.72-.12,1.09-.22.27-.08.5-.29.75-.36.77-.19,1.46.35,2.19.24.35-.05.54-.17.89-.24.24-.05.56.03.8.01.35-.02.37-.09.69-.18.62-.17,1.14-.17,1.69-.48.13.46.16,1.45.05,1.92-.1.42-.13.32-.55.33-.32.01-.78.07-1.09,0-.29-.06-.36-.22-.63-.36s-.68-.15-.99-.11c-.52.06-.87.49-1.35.64-.72.22-1.58-.16-2.29.1-.2.07-.44.36-.65.47-.31.16-.53.17-.92.17-.64,0-1.39.11-1.96.34-.63.25-.88.45-1.62.23-.23-.07-.47-.28-.66-.32-.32-.08-.86-.07-1.19-.03-.73.09-.82.72-.37,1.33.32.43.69.75.98,1.19s.63.93.98,1.3c.76.81,1.98,1.14,2.93.68.48-.23.89-.41,1.46-.4.31,0,.67.04.98,0s.47-.18.76-.24c.38-.08.8.07,1.19.01.33-.05.36-.12.64-.29.13-.08.29-.1.4-.22.07-.08.02-.27.08-.35.16-.22.37-.39.59-.51.25-.14.48-.22.72-.4.22-.16.23-.36.54-.24.5.19.51.82,1.13.88.41.04.55-.12.78.32.13.26.15.64.08.92-.21.92-.74.5-1.2.14-.92-.73-2.15-.6-2.96.15-.33.3-.78.62-1.25.52-.32-.06-.54-.22-.87-.24-.36-.02-.73,0-1.08,0-.22,0-.69-.1-.88-.02-.38.18-.09.43-.22.8-.26.72-.86.45-1.4.58-.62.14-.69.57-.75,1.15-.05.54-.67,1.13-1.03,1.54-.21.24-.49.51-.75.68s-.69.22-.9.45c-.53.6.25,1.03.73,1.15.66.17,1.25-.06,1.78-.34.3-.16.59-.42.93-.5.37-.09.71-.02,1.08-.13.3-.09.67-.34.98-.36.36-.02.54.22.91.24.43.03.82.22,1.21.18.02,0,.21-.18.25-.19.16-.04.49,0,.66.01.66.01,1-.44,1.63-.65s1.01-.82,1.63-.95c.33-.07.74.14,1.04-.03.2-.11.34-.64.66-.38.26.22-.08.91-.13,1.11-.09.37.03.76-.09,1.12-.48-.26-1.13-.36-1.59.02-.51.42-.31,1.26-1.14,1.27-.49,0-1.32-.39-1.79-.02-.16.13-.27.45-.37.64-.24.46-.23.41-.81.4-.65,0-1.31-.04-1.95,0-.65.04-.95.54-1.51.69-.63.17-1.29.23-1.96.22-.34,0-.55.12-.81.18-.41.09-.6,0-.93.28-.58.48-.22.89.11,1.37.15.22.2.31.43.45.2.13.79.21.87.35.49.92-1.59.72-1.75.77-.62.19-.55,1.43-.26,1.9.33.53,1.01.47,1.53.34.26-.06.38-.35.71-.07.13.1.11.26.2.36.15.17.14.16.39.28.47.22,1.14.35,1.57-.1.24-.24.33-.59.65-.76s.72-.1,1.08-.1c.66,0,1.48-.16,2.11.05.25.08.55.31.79.43.47.24,1.21.17,1.6-.3.25-.3.29-.63.61-.87.37-.28.74-.24,1.18-.23.1,0,.39.05.45.02.28-.13.13-.23.25-.47.21-.42.38-.47.76-.65.56.42-.01.9-.11,1.39-.11.56.04,1.17-.07,1.73-.82.23-1.48-.22-1.99.71-.24.43-.17.67-.64.87-.36.15-.7.27-1.08.29-.68.03-1.74.26-1.92,1.13-.1.46.08.77-.14,1.19s-.46.71-.82.89-.65.18-.93.48c-.23.25-.26.63-.6.64-.54.03-.33-.46-.58-.66-.2-.16-.86-.09-1.06.06-.31.25-.1.6-.36.87s-.71.17-1.04.16c-.39,0-.84-.11-1.2-.22-.19-.06-.83-.25-.92-.42-.5.2-.97.59-1.3,1.09-.44.68-.33,1.73-1.24,1.84-.42.05-.51-.04-.82.28-.25.26-.47.62-.15.96.47.49,1.53.39,2.16.35.39-.02.6-.27.96-.25.46.02.81.46,1.32.48.71.03,1.73.16,2.33-.28.21-.15.37-.4.48-.62.18-.35.16-1.25.66-1.35.3-.06,1.17.6,1.44.79.33.22.51.56.92.6.12.82-.57,1.45-.84,1.41-.46-.07-.91-.21-1.29.01-.3.18-.49.48-.78.68-.5.35-1.09.29-1.61.49s-.87.73-1.43.85c-.63.14-1.75.16-2.43.15-.53,0-.86.17-1.34.34-.67.24-1.35.34-2.08.34s-.59.32-.98.82c-.33.42-.96-.47-1.42-.36-.75.18-1.46-.15-2.17-.24-.17-.02-.5-.04-.66,0-.45.12-.24.17-.31.58-.09.53-.23.92-.22,1.48,0,.5-.14,1.25-.01,1.72.16.58.43.17.88.04.63-.18.57.28,1.08.64.79.54,3.2-1.4,3.61-.37.19.47.13.55.65.81.23.12-.69,1.59-.58,1.85.25.58-.61.77-.41,1.42.18.04.37.04.56.08.27.06.74.4.99.38.2-.01.3-.21.44-.37.24-.27.62-.81.94-.95.19-.08.55-.08.74-.13.31-.08.6-.11.96-.11,1.03,0,2.02.24,3.03.23.94-.01,1.68.28,1.65-.91-.02-.7.05-1,.59-1.42.58-.45,2.04-.71,2.57.05.19.28-.01.55.23.81.29.32,1.4.58,1.83.55.45-.54.37-1.52.65-2.15.38-.85,1.04-1.14,1.61-1.82.42-.5.54-1.41,1.17-1.66.8-.31,1.28.26,1.07,1.06-.47.05-1.47.22-1.28.96.08.29.24.31.45.44.1.06.57.2.61.27.22.33-.08.47-.13.69-.06.29,0,.57-.04.87-.06.54-.39.98-.47,1.56-.27.13-.69.03-.98.03-.65,0-1.4-.12-2.03.03-.02.66.15,1.3-.38,1.79s-2.35.2-1.95,1.37c.07.21.28.53.43.68.35.33.53.14.94.21.47.08.92.51,1.37.65.04-.14-.02-.2-.19-.19.58.3,1.76.46,2.15,1.05.48.74-.04,1.09-.71,1.25-.16.04-.15.23-.35.23s-.18-.2-.34-.23c-.37-.06-.79-.02-1.17-.02-.83,0-1.66,0-2.5,0-.52,0-.9-.09-1.41-.18-.47-.08-.86,0-1.26-.33-.19-.15-.32-.46-.52-.58-.15-.09-.27.02-.4-.04-.27-.12-.33-.2-.64-.24-.47-.07-1.38-.23-1.7.28-.19.3-.02.51-.32.81-.07.07-.13.17-.21.24-.12.03-.23.06-.35.09-.06.13-.07.27-.03.41-.14.37-.16.73-.27,1.09-.07.24-.33.46-.45.67-.12.23-.3.69-.17.99s.6.43.88.39c.38-.05.58-.4.94-.02.17.18.27.76.17.99-.18.42-.37.13-.65-.01-.56-.29-1.12-.5-1.76-.46-.28.02-.85.06-.9.46-.02.22.26.23.27.45,0,.14-.16.18-.19.28-.13.43-.19.71-.69.65-.62-.07-1.07-.48-1.74-.48-.49,0-1.61-.62-1.75.22-.07.4.34.5.19.86-.15.4-.68.28-1,.28-.62,0-1.86-.33-2.28.21-.27.34-.15.97-.15,1.38,0,1.26.93,1.37,1.95,1.37s1.89.04,2.81-.22c.78-.22,2.57-.41,2.66.88.78-.35,1.47-.06,2.32,0,.07-.35-.15-1.24.05-1.53.19-.26.66-.39.89-.67.29-.35.57-.82,1.01-.98.74-.27,1.68-.04,2.42-.33.82-.32.88-1.56,1.85-1.5,1.42.09.12,1.86,1.11,2.02.24-.38.78-.12,1.14-.23.34-.11.8-.38,1.04-.64.5-.52.61-1.34,1.02-1.93.35-.52.75-1.01,1.29-1.28.45-.22,1.88-.53,2.03.18-.35.15-.19.86-.18,1.16,0,.49-.08.87-.17,1.36-.12.72-.01,1.41-.27,2.12-.12.33.15.29-.19.45-.14.07-.49-.01-.67-.02-.57-.01-1.07-.21-1.63-.23-.46-.02-.93,0-1.39,0-.35,0-.79-.06-1.13,0-.21.03-.31.14-.45.18-.37.1-.97.34-1.34.26s-.59-.4-.99-.44c-.24-.03-.38.03-.61-.04-.18-.06-.23-.21-.48-.2-.45.03-.78.68-.85,1.07s.14,1.05-.06,1.41c-.23.42-.65.18-.99.32-.17.07-.31.29-.53.36-.35.11-.69-.03-1.02.06-.44.12-.87.23-1.32.38-.36.12-.95.56-1.31.53-.19-.01-.23-.22-.41-.26-.28-.07-.52.15-.72-.18-.54.09-.43.82-.22,1.16.25.41.65.34.99.56.84.55.46,2.45-.4,2.77-.34.13-1.13.26-.71.95.3.49.87.09,1.22-.07.85-.4,2.49-.34,3.15.48.24-.06.77-.49.97-.69s.55-.6.67-.86c.14-.29.13-.61.3-.91.14-.24.33-.59.57-.7.4-.19.98.1,1.34.19.7.18.76-.44,1.16-.98.34-.46.62-.92,1-1.35.24-.28.4-.68.76-.8.26-.08.6,0,.87,0,.66-.01,1.31-.3,1.95-.44.33-.07.69-.05.99-.13.24-.06.68-.11.86-.34v13.48l-1.08-.05c.24.34.96.56,1.3.68.45.17.88.26,1.41.23.49-.03.78-.33,1.3-.21.28.06.46.2.76.21.29.02.58,0,.87,0v-15.08c.61,0,2.53.06,3.15.06.85,0,1.07.02,1.52.81.36.62.72.46,1.24.73.67.34,1.3.72,1.93,1.11.53.33,1.02.39,1.58.57.47.15.91.51,1.38.72.56.25,1.18.26,1.79.39.38.08,1.5.88,1.5-.17-.64-.44-1.24-.42-1.29-1.3-.02-.34-.1-.66.18-.82.56-.32,1.93.49,2.41.66.57.2,1.1.49,1.64.04.21-.17.4-.35.28-.63-.15-.38-.53-.18-.79-.32-.19-.11-.39-.4-.58-.55-.26-.2-.67-.33-.51-.72.15-.36,1.45-.58.71-1.29-.07-.07-.75-.3-.88-.33-.3-.07-.65-.02-.96-.02-.55,0-1.32-.08-1.33-.86-.69-.21-1.55-.77-2.25-.54-.22.07-.34.18-.54.27-.04.02-.61.25-.65.25-.91,0,.01-.7.01-.94,0-.55-1.19-.92-1.55-.93-.63-.01-.47.46-.84.77-.35.29-1.1.18-1.53.17-1.42-.06-2.8-.72-4.24-.72-.39,0-.63.05-.94.31-.18.15-.22.4-.48.4v-3.9c.29,0-.1.15.13.2.41.1.87.08,1.29.05s.64-.23,1.07-.23c1.04-.01.43,1.2,1.18,1.66.41.25.86.16,1.31.17.19,0,.43.06.61-.04.13-.07.17-.29.3-.36.66-.38,1.76.59,2.45.65.38.03.74-.2,1.08-.35.57-.24.79-.35,1.41-.35,1.02,0,1.78.29,2.72.75.91.44,1.74,1.02,2.72,1.36.91.32,1.86.61,2.77.82.01-.41.29-.55.26-.99-.03-.37-.2-.73-.48-.97-.34-.28-1.02-.13-1.24-.5-.19-.32-.03-.89-.22-1.28s-.44-.46-.73-.78c-.27-.29-.36-.66-.54-.98-.11-.2-.22-.14-.29-.38-.05-.18.05-.41.02-.59-.04-.24-.24-.62-.48-.74-.38-.2-.85.11-1.23-.09-.22-.12-.37-.47-.59-.61-.77-.46-1.39-.73-2.26-.71s-1.77-.41-2.62-.68c-.37-.12-.67-.3-1.08-.23-.31.05-.7.39-1.02.19.32-.67.87-.26,1.36-.46-.08-.38.31-.37.53-.52.1-.07.34-.21.4-.34.2-.45-.14-.23-.14-.52,0-.67.47-1.29,1.16-1.32.29-.01,1.32.25,1.19-.31-.08-.33-.98-.46-1.26-.65-.33-.23-.58-.45-.71-.84-.09-.28-.06-.65-.26-.89-.12-.15-.29.05-.37-.2.92-.4,1.94.28,2.75-.56.33-.34.65-.54,1.14-.64.5-.1.87.25,1.39.24.86-.01,1.64.45,2.53.24.31-.07.65-.36.96-.5.53-.23,1-.42,1.57-.43.62-.01,1.42-.14,2.01.05.21.07.44.35.65.38.25.03.53-.16.78-.2.67-.11,1.56-.04,2.26,0,.53.04,1,.41,1.53.45s.67-.24.54-.67c-.16-.51-.46-.63-.16-1.21.03-.07.02-.2.07-.26.07-.09.21-.08.28-.15.17-.19.31-.39.44-.66.28-.6.46-.8-.08-1.14-.35-.22-.87-.1-1.15-.39-.33-.35-.09-.95-.42-1.39-.25-.32-.42-.7-.72-.95-.53-.44-1.23-.79-1.68-1.34-.14.09-.49.12-.59.19-.29.2-.27.38-.47.7-.44.71-1.53.51-1.52-.42-.64-.09-1.1-.48-1.8-.5s-1.45.12-2.04-.45c-.4-.39-.09-.87-.59-1.21-.39-.27-1.05-.16-1.5-.25-1-.2-2.1-.91-3.14-.8-.18.37-.09.89-.54.91-.27.01-.67-.27-.37-.48-.84.08-1.68-.2-2.52-.23-.16,0-.49-.04-.65.06-.18.11-.2.31-.41.39-.3.12-.64-.05-.95,0-.24.05-.41.21-.65.25-.26.05-.59-.01-.86-.01-.6,0-.95-.21-1.51-.26-.08-1.82,4.34-1.06,5.01-.71.33.18.25.27.7.29.39.02.79.03,1.16-.06.06-.01.16-.15.25-.18.21-.07.45,0,.68-.1.38-.15.57-.31.39-.77-.74-.13-1.3-.32-1.63-1.14.18,0,.26-.17.38-.2.45-.14.96-.05,1.42-.05.63,0,1.27-.05,1.88.06.48.08.67.1,1.08-.22.24-.19.42-.48.65-.69.43-.39,1.42-.57,1.66-1.1.56-1.2-2.24-1.46-2.74-1.47-.45-.01-.91,0-1.36.01-.57,0-.93-.2-1.46-.4-1.7-.62-3.44-1.43-5.26-1.42-.5,0-1.04.06-1.53,0-.78-.09-1.58-.28-2.38-.41-.47-.07-1.03.07-1.49-.04-.36-.09-.74-.47-1.12-.47v-2.32c.35,0,.13.18.44.23.34.05.34-.06.64-.19.54-.23,1.05-.1,1.64-.21.65-.13.48-.43.1-.8-.51-.5-.62-.28-1.02.25-.29-.22-.59-.08-.91-.16-.08-.31-.09-.78,0-1.09.71-.28,1.64.24,2.34-.06.01-.35.01-.77.4-.85.31.45.14,1.44.93,1.36.17-.02.34-.21.52-.26.21-.06.53,0,.76,0,.33,0,.8.1,1.11.01.28-.08.29-.28.63-.26.45.03.89.38,1.3.48.5.13,1-.24,1.51-.24.8,0,1.41.46,2.19.46.45,0,.93.12,1.09-.44s-.42-1.19-.71-1.58c-.3.48.59.94-.25.81.09-1.54-.44-.47-.45-.56-.43-.15-.61.35-.77-.24-.11-.4.08.33-.28.04.46.12.19-.38.08-.76-.1-.33-.51-.77-.72-1.08-.67-1.02-2-1.28-3.02-1.53-.62-.15-1.2-.09-1.81-.31-.46-.17-.82-.45-1.29-.59-.65-.2-1.34-.28-2.01-.41-.76-.14-1.58-.03-2.32-.19-.5-.11-.93-.46-.78-1.09.55-.24,1.58.14,2.14.26s1.13.15,1.64.36c.8.33,1.71.8,2.59.93.37.06.92.08,1.24-.15.24-.18.24-.56.46-.72.45-.33,1.58.11,2.02.17.81.12,1.46.25,2.32.25.59,0,1.22.07,1.81,0,.41-.04.78-.21,1.2-.24s1.42-.08,1.7-.5c.18-.27.05-.7-.11-.86-.14-.15-.35-.13-.48-.32s-.03-.63-.03-.82c-.15-.08-.06-.83-.22-.91-.3-.16-1.75-.27-2-.4s-.56-.18-.82-.34c-.37-.21-.69-.45-1.07-.63-.99-.46-2.19-.2-3.25-.46-.49-.12-1.38-.09-1.7-.51-.25-.32-.32-.83-.75-1.04-.73-.37-1.64-.27-2.48-.28-.61,0-.65-.06-1.01.17-.28.17-.21.24-.57.3-.64.09-1.14-.06-1.7.2-.14-.33.07-.89.29-1.12.19-.2.51-.12.71-.27.18-.14.19-.29.29-.49.15-.3.27-.68.57-.89.54-.38.95,0,1.53.07,1.05.12,1.96-.24,2.98-.24,1.04,0,1.94.23,2.98.23.53,0,1.05-.02,1.58,0,.74.02,1.41.48,2.13.66.37.09,2.94.65,2.99.03.02-.24-.66-.84-.83-.98-.27-.21-.5-.24-.8-.36-.41-.16-.46-.31-.79-.74-.85-1.11-3.18-.82-4.31-1.62-.99-.7-1.72-1.29-2.81-1.09-1.7.32-3.01,1.49-4.5,2.3-.54.29-1.12.7-1.65.83-.22.05-.41.07-.6.15-.33.15-.44.35-.87.35v-4.78l-.19.05c.11.85,1.65.99,2.25.84s.6-.21,1.19.08c.31.15.97.03,1.14.35.37-.22.81-.33,1.25-.42.48-.1.63-.39,1.08-.63.29-.16.32.07.45-.26.04-.09,0-.59-.01-.7-.02-.47-.23-1.05-.56-1.37-.36-.34-1-.44-1.4-.67-.27-.15-.53-.34-.8-.51-.42-.26-1.04,1-1.52.88-.62-.15-.78-1.75-1.44-1.76-.42,0-1.02.16-1.42-.02-.04-.36-.08-.54-.22-.83.21-.09.42-.1.64-.04-.1.33-.64,1.17-.93,1.33-.2.11-.52.02-.74.02h.37c.53,0,.82-1.99,1.3-2.05.5-.07,1.03.07,1.53,0,.29-.03.33.06.45-.22.04-.1.04-.84,0-.94-.12-.3-.75-.28-1.04-.4-.19.35-.84.26-1.05-.03-.27-.39-.07-.72.12-1.03.28-.48.51-.61.39-1.2-.08-.38-.25-.66-.12-1.14.1-.34.44-.55.4-.97-.03-.38-.34-.68-.67-.69-.26,0-.74.19-.93.4-.15.17-.11.4-.27.51-.23.15-.31.03-.31-.22Z"/>
  <g>
    <path class="cls-1" d="M61.36,52.2c1.07-.35,1.31-1.32,1.33-3.66l.14-14.48c.02-2.34-.2-3.31-1.26-3.68v-.46s15.69.15,15.69.15l.19,3.61-.42.09c-1.18-2.28-2.63-3.14-5.85-3.17l-4.87-.05-.09,9.42,2.63.03c3.96.04,5.11-.73,5.64-2.41h.45s-.05,5.52-.05,5.52h-.45c-.5-1.7-1.63-2.49-5.59-2.52l-2.63-.03-.08,8.02c-.02,2.34.2,3.31,1.26,3.68v.45s-6.04-.06-6.04-.06v-.45Z"/>
    <path class="cls-1" d="M79.61,52.38c1.07-.35,1.31-1.32,1.33-3.66l.07-7.47c.02-1.92-.47-2.25-1.27-2.61v-.46s4.31-1.84,4.31-1.84l.32.26-.12,12.14c-.02,2.34.2,3.31,1.26,3.68v.45s-5.91-.06-5.91-.06v-.45ZM80.35,33c.01-1.27,1-2.23,2.23-2.22,1.3.01,2.2,1,2.19,2.26-.01,1.23-1,2.2-2.23,2.19-1.23-.01-2.2-1-2.19-2.23Z"/>
    <path class="cls-1" d="M88.21,45.41c.05-5.52,4.4-8.92,8.62-8.88,4.38.04,6.69,3.08,6.67,5.91l-12.31-.12-.07,1.04c-.04,4.25,2.53,7.3,6.65,7.34,2.4.02,4.26-1,5.64-2.51l.29.33c-1.51,2.26-4.11,4.83-7.87,4.8-3.6-.03-7.67-2.64-7.62-7.9ZM100.23,41.96c-.4-2.67-2.16-4.79-4.4-4.85-2.76-.06-4.18,2.23-4.59,4.76l8.99.09Z"/>
    <path class="cls-1" d="M105.77,52.63c1.07-.35,1.31-1.32,1.33-3.66l.17-17.21c.02-1.92-.47-2.25-1.27-2.61v-.46s4.31-1.84,4.31-1.84l.32.26-.21,21.88c-.02,2.34.2,3.31,1.26,3.68v.45s-5.91-.06-5.91-.06v-.45Z"/>
    <path class="cls-1" d="M114.51,45.66c.05-4.97,3.5-8.9,9.14-8.84,1.36.01,2.5.35,3.47.85l.05-5.71c.02-1.92-.46-2.25-1.27-2.61v-.46s4.31-1.84,4.31-1.84l.32.26-.21,21.88c-.02,2.34.19,3.32,1.26,3.68v.45s-3.32-.03-3.32-.03c-.84,0-1.29-.47-1.29-1.31v-1.36c-1.23,1.42-3.2,3.09-5.63,3-4.12-.1-6.88-3.93-6.84-7.96ZM123.38,51.69c1.43.01,2.67-.75,3.62-1.75l.07-7.18c.02-2.4-2.06-5.25-4.79-5.27-3.57-.03-4.54,3.01-4.57,5.57-.03,3.08.99,8.58,5.67,8.63Z"/>
  </g>
  <g>
    <path class="cls-1" d="M77.42,82.78c1.07-.36,1.3-1.33,1.3-3.67v-18.02h-1.01c-2.89,0-4.35.81-5.55,3.41l-.39-.07.2-3.93h16.92l.2,3.93-.39.07c-1.2-2.6-2.66-3.41-5.55-3.41h-.94v18.02c0,2.34.23,3.31,1.3,3.67v.45h-6.07v-.45Z"/>
    <path class="cls-1" d="M89.76,82.78c1.07-.36,1.3-1.33,1.3-3.67v-7.47c0-1.92-.49-2.24-1.3-2.6v-.46l4.29-1.88.33.26v3.93c.49-1.14,1.33-2.14,2.37-2.86,1.2-.84,2.43-1.27,3.99-1.27,1.1,0,2.08.29,2.08.97s-.71,2.11-2.21,2.11c-.91,0-2.14-.32-4.22-.97-.81.68-1.92,2.14-2.01,3.77v6.46c0,2.34.23,3.31,1.3,3.67v.45h-5.91v-.45Z"/>
    <path class="cls-1" d="M105.05,82.78c1.07-.36,1.3-1.33,1.3-3.67v-7.47c0-1.92-.49-2.24-1.3-2.6v-.46l4.29-1.88.33.26v12.14c0,2.34.23,3.31,1.3,3.67v.45h-5.91v-.45ZM105.6,63.39c0-1.27.97-2.24,2.21-2.24,1.3,0,2.21.97,2.21,2.24s-.97,2.21-2.21,2.21-2.21-.97-2.21-2.21Z"/>
    <path class="cls-1" d="M118.33,82.45v5.42c0,2.34.23,3.31,1.3,3.67v.45h-5.91v-.45c1.07-.36,1.3-1.33,1.3-3.67v-16.24c0-1.92-.49-2.24-1.3-2.6v-.46l4.29-1.88.32.26v2.11c1.72-1.2,3.83-2.31,6.07-2.31,4.03,0,6.59,3.38,6.59,7.83,0,4.97-3.34,8.93-8.67,8.93-1.49,0-2.86-.42-3.99-1.07ZM123.62,82.9c3.51,0,4.32-2.89,4.32-5.84s-.97-8.96-5.81-8.96c-1.43,0-2.66.65-3.8,1.53v8.18c0,2.24,2.89,5.1,5.29,5.1Z"/>
  </g>
</svg>